<svg xmlns="http://www.w3.org/2000/svg" viewBox="0 0 20.6 15.15"><defs><style>.cls-1{fill:#0080a6;}</style></defs><g id="Layer_2" data-name="Layer 2"><g id="Layer_1-2" data-name="Layer 1"><path class="cls-1" d="M11.37,6.08a2.8,2.8,0,1,0,1.52,3.66A2.79,2.79,0,0,0,11.37,6.08Z"/><path class="cls-1" d="M18.88,2.18H14.75L13.8.2a.35.35,0,0,0-.31-.2H7.11A.35.35,0,0,0,6.8.2l-1,2H5.12V.85A.35.35,0,0,0,4.77.5H2.43a.35.35,0,0,0-.35.35V2.18H1.72A1.72,1.72,0,0,0,0,3.9v9.54a1.71,1.71,0,0,0,1.72,1.71H18.88a1.71,1.71,0,0,0,1.72-1.71V3.9A1.72,1.72,0,0,0,18.88,2.18Zm-8.58,11a4.52,4.52,0,1,1,4.51-4.51A4.51,4.51,0,0,1,10.3,13.18Zm8.58-7.26a.35.35,0,0,1-.34.35H16.19a.35.35,0,0,1-.34-.35V4.24a.34.34,0,0,1,.34-.34h2.35a.34.34,0,0,1,.34.34Z"/></g></g></svg>