<svg xmlns="http://www.w3.org/2000/svg" viewBox="0 0 22.31 22.31"><defs><style>.cls-1{fill:#0080a6;fill-rule:evenodd;}</style></defs><g id="Layer_2" data-name="Layer 2"><g id="Layer_1-2" data-name="Layer 1"><path class="cls-1" d="M13.78,11.21a.08.08,0,0,1,0-.11l8.3-8.31a.76.76,0,0,0,0-1.09L20.64.23a.78.78,0,0,0-1.1,0L11.21,8.56a.08.08,0,0,1-.11,0L2.79.23A.76.76,0,0,0,1.7.23L.23,1.7a.76.76,0,0,0,0,1.09L8.56,11.1a.08.08,0,0,1,0,.11L.23,19.54a.78.78,0,0,0,0,1.1L1.7,22.09a.76.76,0,0,0,1.09,0l8.3-8.3a.09.09,0,0,1,.12,0l8.33,8.3a.78.78,0,0,0,1.1,0l1.44-1.44a.78.78,0,0,0,0-1.1Z"/></g></g></svg>