<svg xmlns="http://www.w3.org/2000/svg" viewBox="0 0 21.36 21.36"><defs><style>.cls-1{fill:#0380a7;}</style></defs><g id="Layer_2" data-name="Layer 2"><g id="Layer_1-2" data-name="Layer 1"><path class="cls-1" d="M16.34,3.81a1.26,1.26,0,1,0,0,2.51,1.26,1.26,0,0,0,0-2.51Z"/><path class="cls-1" d="M10.77,5.42A5.26,5.26,0,1,0,16,10.68,5.27,5.27,0,0,0,10.77,5.42Zm0,8.63a3.37,3.37,0,1,1,3.37-3.37A3.37,3.37,0,0,1,10.77,14.05Z"/><path class="cls-1" d="M15,21.36H6.42A6.43,6.43,0,0,1,0,15V6.42A6.43,6.43,0,0,1,6.42,0H15a6.43,6.43,0,0,1,6.41,6.42V15A6.42,6.42,0,0,1,15,21.36ZM6.42,2A4.42,4.42,0,0,0,2,6.42V15a4.41,4.41,0,0,0,4.41,4.4H15a4.4,4.4,0,0,0,4.4-4.4V6.42A4.41,4.41,0,0,0,15,2Z"/></g></g></svg>