<svg xmlns="http://www.w3.org/2000/svg" viewBox="0 0 39.29 39.28"><defs><style>.cls-1{fill:#0380a7;}</style></defs><g id="Layer_2" data-name="Layer 2"><g id="Layer_1-2" data-name="Layer 1"><path class="cls-1" d="M38.55,35.08l-8.76-8.76A16.35,16.35,0,0,0,33,16.54,16.52,16.52,0,1,0,16.5,33a16.35,16.35,0,0,0,9.78-3.24l8.77,8.77a2.49,2.49,0,0,0,1.75.72,2.53,2.53,0,0,0,1.71-.68l.05,0a2.53,2.53,0,0,0,.73-1.79A2.38,2.38,0,0,0,38.55,35.08ZM28.08,16.5A11.59,11.59,0,1,1,16.5,4.91,11.59,11.59,0,0,1,28.08,16.5Z"/></g></g></svg>