<svg xmlns="http://www.w3.org/2000/svg" viewBox="0 0 19.87 16.36"><defs><style>.cls-1{fill:#0380a7;}</style></defs><g id="Layer_2" data-name="Layer 2"><g id="Layer_1-2" data-name="Layer 1"><path class="cls-1" d="M19.79,2a7.82,7.82,0,0,1-2,.57c.32,0,.8-.64,1-.87A3.73,3.73,0,0,0,19.44.44s0-.08,0-.1a.11.11,0,0,0-.11,0,10.54,10.54,0,0,1-2.38.91.15.15,0,0,1-.16-.05c-.07-.07-.14-.15-.21-.21A4.31,4.31,0,0,0,15.41.29,4.07,4.07,0,0,0,13.64,0a4.28,4.28,0,0,0-3,1.58A4.26,4.26,0,0,0,9.8,3.21a4.28,4.28,0,0,0,0,1.71c0,.1,0,.11-.08.1A12.72,12.72,0,0,1,1.49.85c-.1-.11-.15-.11-.23,0A4.16,4.16,0,0,0,2,5.76c.16.15.33.31.5.45A4.36,4.36,0,0,1,.89,5.76c-.09-.06-.14,0-.15.09a2.42,2.42,0,0,0,0,.46A4.19,4.19,0,0,0,3.36,9.66a2.24,2.24,0,0,0,.52.16,4.67,4.67,0,0,1-1.55,0c-.11,0-.15,0-.11.14a4.36,4.36,0,0,0,3.25,2.73,3.47,3.47,0,0,1,.45.06l0,0A5.11,5.11,0,0,1,3.67,14a7.94,7.94,0,0,1-3.38.44c-.18,0-.22,0-.27,0s0,.07.05.12c.23.15.47.28.71.41A10.94,10.94,0,0,0,3,15.88a12.05,12.05,0,0,0,11.68-2.73,12.27,12.27,0,0,0,3.23-8.94c0-.13.15-.2.24-.26a8.08,8.08,0,0,0,1.59-1.66.5.5,0,0,0,.1-.31V2C19.87,1.91,19.87,1.92,19.79,2Z"/></g></g></svg>